<svg width="68" height="66" viewBox="0 0 68 66" fill="none" xmlns="http://www.w3.org/2000/svg">
<rect x="1" y="1" width="65.5714" height="64" rx="7" stroke="black" stroke-width="2"/>
<path d="M52.5396 23.6475C50.0749 26.1123 46.0788 26.1123 43.6141 23.6475C41.1493 21.1828 41.1493 17.1867 43.6141 14.722C46.0788 12.2572 50.0749 12.2572 52.5396 14.722C55.0044 17.1867 55.0044 21.1828 52.5396 23.6475Z" fill="black"/>
<circle cx="33.9255" cy="32.9256" r="6.31133" transform="rotate(45 33.9255 32.9256)" fill="black"/>
<circle cx="20.5458" cy="46.7158" r="6.31133" transform="rotate(45 20.5458 46.7158)" fill="black"/>
<path d="M24.3883 23.3883C21.9236 25.8531 17.9275 25.8531 15.4628 23.3883C12.998 20.9236 12.998 16.9275 15.4628 14.4628C17.9275 11.9981 21.9236 11.9981 24.3883 14.4628C26.853 16.9275 26.853 20.9236 24.3883 23.3883Z" fill="black"/>
<circle cx="47.9255" cy="46.9256" r="6.31133" transform="rotate(45 47.9255 46.9256)" fill="black"/>
</svg>
