<svg width="26" height="45" viewBox="0 0 26 45" fill="none" xmlns="http://www.w3.org/2000/svg">
<path d="M13.6372 19.6037C7.98821 18.1396 6.17158 16.6259 6.17158 14.2685C6.17158 11.5637 8.685 9.67778 12.8906 9.67778C17.3202 9.67778 18.9627 11.787 19.112 14.8889H24.6117C24.4375 10.6207 21.8245 6.7 16.6234 5.43444V0H9.15783V5.36C4.33006 6.40222 0.447937 9.52889 0.447937 14.3181C0.447937 20.0504 5.20105 22.9041 12.1441 24.5667C18.3654 26.0556 19.6097 28.2393 19.6097 30.547C19.6097 32.2593 18.3903 34.9889 12.8906 34.9889C7.76424 34.9889 5.74853 32.7059 5.47479 29.7778H0C0.298625 35.2122 4.37983 38.2645 9.15783 39.2819V44.6667H16.6234V39.3315C21.4761 38.4133 25.3333 35.6093 25.3333 30.5222C25.3333 23.4748 19.2862 21.0678 13.6372 19.6037Z" fill="white"/>
</svg>
