<svg width="53" height="38" viewBox="0 0 53 38" fill="none" xmlns="http://www.w3.org/2000/svg">
<path d="M38.425 19C42.082 19 45.0235 15.96 45.0235 12.2143C45.0235 8.46857 42.082 5.42857 38.425 5.42857C34.768 5.42857 31.8 8.46857 31.8 12.2143C31.8 15.96 34.768 19 38.425 19ZM18.55 16.2857C22.949 16.2857 26.4735 12.6486 26.4735 8.14286C26.4735 3.63714 22.949 0 18.55 0C14.151 0 10.6 3.63714 10.6 8.14286C10.6 12.6486 14.151 16.2857 18.55 16.2857ZM38.425 24.4286C33.5755 24.4286 23.85 26.9257 23.85 31.8929V38H53V31.8929C53 26.9257 43.2745 24.4286 38.425 24.4286ZM18.55 21.7143C12.3755 21.7143 0 24.89 0 31.2143V38H18.55V31.8929C18.55 29.5857 19.4245 25.5414 24.8305 22.4743C22.525 21.9857 20.299 21.7143 18.55 21.7143Z" fill="white"/>
</svg>
